# OBJ generated by ONSHAPE BY PTC INC, 1.214 Units = meters
mtllib base - Part 1.mtl
g Part 1
v 0.1 -0.0414214 0 
v 0.0727273 6.11663e-18 0.0454545 
v 0.1 0.0414214 0 
v 0.08 0 0.05 
v 0.11 0.0455635 0 
v 0.11 -0.0455635 0 
v 0.1 0.0414214 -0.025 
v 0.1 -0.0414214 -0.025 
v 0.0414214 0.1 0 
v 0.0414214 0.1 -0.025 
v 0.0514259 0.0514259 0.0454545 
v 0.0565685 0.0565685 0.05 
v 0.0455635 0.11 0 
v 0.11 0.0455635 -0.025 
v 0.0455635 0.11 -0.025 
v 0.11 -0.0455635 -0.025 
v -0.0414214 0.1 0 
v -0.0414214 0.1 -0.025 
v -1.66336e-18 0.0727273 0.0454545 
v 4.89859e-18 0.08 0.05 
v -0.0455635 0.11 0 
v -0.0455635 0.11 -0.025 
v -0.1 0.0414214 0 
v -0.1 0.0414214 -0.025 
v -0.0514259 0.0514259 0.0454545 
v -0.0565685 0.0565685 0.05 
v -0.11 0.0455635 0 
v -0.11 0.0455635 -0.025 
v -0.1 -0.0414214 0 
v -0.1 -0.0414214 -0.025 
v -0.0727273 2.7899e-18 0.0454545 
v -0.08 9.79717e-18 0.05 
v -0.11 -0.0455635 0 
v -0.11 -0.0455635 -0.025 
v 0.0455635 -0.11 -0.025 
v 0.0414214 -0.1 -0.025 
v -0.0455635 -0.11 -0.025 
v -0.0414214 -0.1 -0.025 
v -0.0414214 -0.1 0 
v -0.0455635 -0.11 0 
v 0.0414214 -0.1 0 
v 0.0455635 -0.11 0 
v 0.0565685 -0.0565685 0.05 
v 0.0514259 -0.0514259 0.0454545 
v -0.0565685 -0.0565685 0.05 
v -0.0514259 -0.0514259 0.0454545 
v -1.46958e-17 -0.08 0.05 
v -7.24316e-18 -0.0727273 0.0454545 
vn -0.857493 -2.87294e-16 -0.514496 
vn -0.326365 0.787915 0.522184 
vn -0.326365 -0.787915 0.522184 
vn 0.857493 0 0.514496 
vn -1 -3.35039e-16 0 
vn -0.707107 -0.707107 0 
vn -0.606339 -0.606339 -0.514496 
vn 0.326365 -0.787915 0.522184 
vn -0.787915 0.326365 0.522184 
vn 0.606339 0.606339 0.514496 
vn 0.707107 0.707107 0 
vn 1 0 0 
vn 2.73807e-16 -1 0 
vn 2.34788e-16 -0.857493 -0.514496 
vn 0.787915 -0.326365 0.522184 
vn 5.25063e-17 0.857493 0.514496 
vn 6.12323e-17 1 0 
vn -0.787915 -0.326365 0.522184 
vn 0.707107 -0.707107 0 
vn 0.606339 -0.606339 -0.514496 
vn 0.787915 0.326365 0.522184 
vn -0.606339 0.606339 0.514496 
vn -0.707107 0.707107 0 
vn -0.326365 -0.787915 0.522184 
vn 1 2.12575e-16 0 
vn 0.857493 1.82281e-16 -0.514496 
vn 0.326365 0.787915 0.522184 
vn -0.857493 1.05013e-16 0.514496 
vn -1 1.22465e-16 0 
vn 0.326365 -0.787915 0.522184 
vn 0 0 -1 
vn 0.707107 0.707107 0 
vn -0.707107 -0.707107 0 
vn -1.51342e-16 1 0 
vn -1.83697e-16 -1 0 
vn -0.707107 0.707107 0 
vn 0.707107 -0.707107 0 
vn 0.326365 0.787915 0.522184 
vn -0.606339 0.606339 -0.514496 
vn 0.606339 -0.606339 0.514496 
vn -0.787915 -0.326365 0.522184 
vn -0.326365 0.787915 0.522184 
vn 0.606339 0.606339 -0.514496 
vn -0.606339 -0.606339 0.514496 
vn 0.787915 -0.326365 0.522184 
vn 0.787915 0.326365 0.522184 
vn -0.787915 0.326365 0.522184 
vn -1.29775e-16 0.857493 -0.514496 
vn -1.57519e-16 -0.857493 0.514496 
usemtl 0.615686_0.811765_0.929412_0.000000_0.000000
o mesh0
f 1//1 2//1 3//1 
o mesh1
f 4//2 5//2 3//2 
f 3//2 2//2 4//2 
o mesh2
f 4//3 2//3 1//3 
f 1//3 6//3 4//3 
o mesh3
f 6//4 5//4 4//4 
o mesh4
f 7//5 8//5 1//5 
f 1//5 3//5 7//5 
o mesh5
f 7//6 3//6 9//6 
f 9//6 10//6 7//6 
o mesh6
f 3//7 11//7 9//7 
o mesh7
f 12//8 11//8 3//8 
f 3//8 5//8 12//8 
o mesh8
f 12//9 13//9 9//9 
f 9//9 11//9 12//9 
o mesh9
f 5//10 13//10 12//10 
o mesh10
f 13//11 5//11 14//11 
f 14//11 15//11 13//11 
o mesh11
f 14//12 5//12 6//12 
f 6//12 16//12 14//12 
o mesh12
f 10//13 9//13 17//13 
f 17//13 18//13 10//13 
o mesh13
f 9//14 19//14 17//14 
o mesh14
f 20//15 19//15 9//15 
f 9//15 13//15 20//15 
o mesh15
f 13//16 21//16 20//16 
o mesh16
f 21//17 13//17 15//17 
f 15//17 22//17 21//17 
o mesh17
f 20//18 21//18 17//18 
f 17//18 19//18 20//18 
o mesh18
f 23//19 24//19 18//19 
f 18//19 17//19 23//19 
o mesh19
f 17//20 25//20 23//20 
o mesh20
f 26//21 25//21 17//21 
f 17//21 21//21 26//21 
o mesh21
f 21//22 27//22 26//22 
o mesh22
f 22//23 28//23 27//23 
f 27//23 21//23 22//23 
o mesh23
f 26//24 27//24 23//24 
f 23//24 25//24 26//24 
o mesh24
f 24//25 23//25 29//25 
f 29//25 30//25 24//25 
o mesh25
f 23//26 31//26 29//26 
o mesh26
f 32//27 31//27 23//27 
f 23//27 27//27 32//27 
o mesh27
f 27//28 33//28 32//28 
o mesh28
f 33//29 27//29 28//29 
f 28//29 34//29 33//29 
o mesh29
f 32//30 33//30 29//30 
f 29//30 31//30 32//30 
o mesh30
f 14//31 16//31 8//31 
f 16//31 35//31 36//31 
f 35//31 37//31 38//31 
f 37//31 34//31 30//31 
f 22//31 15//31 10//31 
f 15//31 14//31 7//31 
f 36//31 8//31 16//31 
f 30//31 38//31 37//31 
f 28//31 22//31 18//31 
f 7//31 10//31 15//31 
f 38//31 36//31 35//31 
f 34//31 28//31 24//31 
f 10//31 18//31 22//31 
f 24//31 30//31 34//31 
f 8//31 7//31 14//31 
f 18//31 24//31 28//31 
o mesh31
f 39//32 38//32 30//32 
f 30//32 29//32 39//32 
o mesh32
f 40//33 33//33 34//33 
f 34//33 37//33 40//33 
o mesh33
f 38//34 39//34 41//34 
f 41//34 36//34 38//34 
o mesh34
f 37//35 35//35 42//35 
f 42//35 40//35 37//35 
o mesh35
f 41//36 1//36 8//36 
f 8//36 36//36 41//36 
o mesh36
f 6//37 42//37 35//37 
f 35//37 16//37 6//37 
o mesh37
f 43//38 6//38 1//38 
f 1//38 44//38 43//38 
o mesh38
f 41//39 44//39 1//39 
o mesh39
f 42//40 6//40 43//40 
o mesh40
f 43//41 44//41 41//41 
f 41//41 42//41 43//41 
o mesh41
f 45//42 46//42 29//42 
f 29//42 33//42 45//42 
o mesh42
f 29//43 46//43 39//43 
o mesh43
f 33//44 40//44 45//44 
o mesh44
f 45//45 40//45 39//45 
f 39//45 46//45 45//45 
o mesh45
f 47//46 42//46 41//46 
f 41//46 48//46 47//46 
o mesh46
f 47//47 48//47 39//47 
f 39//47 40//47 47//47 
o mesh47
f 39//48 48//48 41//48 
o mesh48
f 40//49 42//49 47//49 
