# OBJ generated by ONSHAPE BY PTC INC, 1.214 Units = meters
mtllib base - Part 2.mtl
g Part 2
v 0.08 0 0.05 
v 0.0727273 6.11663e-18 0.0454545 
v 0.1 0.0414214 0 
v 0.11 0.0455635 0 
v 0.0565685 0.0565685 0.05 
v 0.0514259 0.0514259 0.0454545 
v 0.0479241 0.0198508 0.0624176 
v 0.0527165 0.0218359 0.0686594 
vn 0.326365 -0.787915 -0.522184 
vn -0.326365 0.787915 -0.522184 
vn -0.685671 -0.284014 -0.670217 
vn -0.309979 -0.811129 0.495966 
vn -0.792743 0.354367 0.495966 
vn 0.685671 0.284014 0.670217 
usemtl 0.647059_0.647059_0.647059_0.000000_0.000000
o mesh0
f 1//1 2//1 3//1 
f 3//1 4//1 1//1 
o mesh1
f 5//2 4//2 3//2 
f 3//2 6//2 5//2 
o mesh2
f 2//3 7//3 6//3 
f 6//3 3//3 2//3 
o mesh3
f 8//4 7//4 2//4 
f 2//4 1//4 8//4 
o mesh4
f 8//5 5//5 6//5 
f 6//5 7//5 8//5 
o mesh5
f 1//6 4//6 5//6 
f 5//6 8//6 1//6 
