# OBJ generated by ONSHAPE BY PTC INC, 1.214 Units = meters
mtllib base - Part 9.mtl
g Part 9
v -7.24316e-18 -0.0727273 0.0454545 
v -0.0414214 -0.1 0 
v -0.0514259 -0.0514259 0.0454545 
v -0.0565685 -0.0565685 0.05 
v -0.0455635 -0.11 0 
v -1.46958e-17 -0.08 0.05 
vn 0.284014 0.685671 -0.670217 
vn -0.787915 0.326365 -0.522184 
vn 0.787915 -0.326365 -0.522184 
vn 0.214426 0.517671 0.828274 
vn -0.284014 -0.685671 0.670217 
usemtl 0.231373_0.380392_0.705882_0.000000_0.000000
o mesh0
f 1//1 2//1 3//1 
o mesh1
f 4//2 3//2 2//2 
f 2//2 5//2 4//2 
o mesh2
f 6//3 5//3 2//3 
f 2//3 1//3 6//3 
o mesh3
f 4//4 6//4 1//4 
f 1//4 3//4 4//4 
o mesh4
f 6//5 4//5 5//5 
