# OBJ generated by ONSHAPE BY PTC INC, 1.214 Units = meters
mtllib base - Part 7.mtl
g Part 7
v 0.0527165 0.0218359 0.0686594 
v 0.0479241 0.0198508 0.0624176 
v 0.0514259 0.0514259 0.0454545 
v 0.0565685 0.0565685 0.05 
v -5.84931e-18 -6.76167e-18 0.0910906 
v -1.6057e-17 1.52581e-17 0.0828096 
v -0.0218359 0.0527165 0.0686594 
v 4.89859e-18 0.08 0.05 
v -0.0198508 0.0479241 0.0624176 
v -1.66336e-18 0.0727273 0.0454545 
vn 0.792743 -0.354367 -0.495966 
vn 0.382683 -0.92388 -1.30092e-15 
vn 0.185949 0.44892 0.87401 
vn -0.185949 -0.44892 -0.87401 
vn -0.811129 0.309979 -0.495966 
vn -0.92388 -0.382683 -1.78595e-15 
vn 0.214426 0.517671 -0.828274 
usemtl 0.917647_0.917647_0.917647_0.000000_0.000000
o mesh0
f 1//1 2//1 3//1 
f 3//1 4//1 1//1 
o mesh1
f 1//2 5//2 6//2 
f 6//2 2//2 1//2 
o mesh2
f 7//3 1//3 4//3 
f 4//3 8//3 7//3 
f 7//3 5//3 1//3 
o mesh3
f 2//4 9//4 10//4 
f 2//4 6//4 9//4 
f 10//4 3//4 2//4 
o mesh4
f 7//5 8//5 10//5 
f 10//5 9//5 7//5 
o mesh5
f 7//6 9//6 6//6 
f 6//6 5//6 7//6 
o mesh6
f 4//7 3//7 10//7 
f 10//7 8//7 4//7 
